<svg id="Card" xmlns="http://www.w3.org/2000/svg" width="304.25" height="283.53" viewBox="0 0 304.25 283.53">
  <defs>
    <style>
      .cls-1, .cls-2 {
        fill: #e44b37;
      }

      .cls-1, .cls-2, .cls-4, .cls-5 {
        fill-rule: evenodd;
      }

      .cls-2 {
        stroke: #fff;
        stroke-width: 15px;
      }

      .cls-3, .cls-4, .cls-5 {
        fill: #fff;
      }

      .cls-4 {
        opacity: 0.41;
      }
    </style>
  </defs>
  <path class="cls-1" d="M1808.57,1275.76l112.86,40.03a22.367,22.367,0,0,1,13.58,28.57l-59.73,168.25a22.369,22.369,0,0,1-28.55,13.61l-112.86-40.04a22.345,22.345,0,0,1-13.58-28.56l59.72-168.25A22.38,22.38,0,0,1,1808.57,1275.76Z" transform="translate(-1719 -1259.72)"/>
  <path id="Rectangle_1_copy" data-name="Rectangle 1 copy" class="cls-2" d="M1862.94,1270.53l102.05,62.64a22.374,22.374,0,0,1,7.36,30.77l-93.38,152.17a22.359,22.359,0,0,1-30.76,7.38l-102.05-62.64a22.371,22.371,0,0,1-7.35-30.77l93.37-152.17A22.363,22.363,0,0,1,1862.94,1270.53Z" transform="translate(-1719 -1259.72)"/>
  <path id="Rectangle_1_copy_2" data-name="Rectangle 1 copy 2" class="cls-2" d="M1926.68,1287.91l82.87,86.31a22.385,22.385,0,0,1-.65,31.62L1880.28,1529.5a22.32,22.32,0,0,1-31.59-.61l-82.87-86.31a22.385,22.385,0,0,1,.65-31.62l128.62-123.66A22.329,22.329,0,0,1,1926.68,1287.91Z" transform="translate(-1719 -1259.72)"/>
  <circle class="cls-3" cx="196.5" cy="118.78" r="22.5"/>
  <path class="cls-4" d="M1828.38,1387.14l78.63,80.02c4.69,4.78,4.18,12.88-1.14,18.11l-24.25,23.83c-5.32,5.22-13.43,5.59-18.12.82l-78.63-80.02c-4.69-4.78-4.18-12.88,1.14-18.11l24.25-23.83C1815.58,1382.74,1823.69,1382.37,1828.38,1387.14Z" transform="translate(-1719 -1259.72)"/>
  <path class="cls-5" d="M1825.5,1344.51l122.54,127.92-5.01,4.8-122.54-127.92Z" transform="translate(-1719 -1259.72)"/>
</svg>
